<?xml version="1.0" encoding="UTF-8" standalone="no"?>
<!DOCTYPE svg PUBLIC "-//W3C//DTD SVG 1.1//EN"
 "http://www.w3.org/Graphics/SVG/1.1/DTD/svg11.dtd">
<!-- Generated by graphviz version 2.26.3 (20100126.1600)
 -->
<!-- Title: classes_Envios Pages: 1 -->
<svg width="686pt" height="170pt"
 viewBox="0.00 0.00 686.00 170.00" xmlns="http://www.w3.org/2000/svg" xmlns:xlink="http://www.w3.org/1999/xlink">
<g id="graph1" class="graph" transform="scale(1 1) rotate(0) translate(4 166)">
<title>classes_Envios</title>
<polygon fill="white" stroke="white" points="-4,5 -4,-166 683,-166 683,5 -4,5"/>
<!-- 2 -->
<g id="node1" class="node"><title>2</title>
<polygon fill="none" stroke="black" points="-0.5,-18 -0.5,-144 214.5,-144 214.5,-18 -0.5,-18"/>
<text text-anchor="middle" x="107" y="-127.4" font-family="Times Roman,serif" font-size="14.00">EnvioSms</text>
<polyline fill="none" stroke="black" points="-0.5,-119 214.5,-119 "/>
<text text-anchor="start" x="7.5" y="-102.4" font-family="Times Roman,serif" font-size="14.00">date_create : DateTimeField</text>
<text text-anchor="start" x="7.5" y="-85.4" font-family="Times Roman,serif" font-size="14.00">date_update : DateTimeField</text>
<text text-anchor="start" x="7.5" y="-68.4" font-family="Times Roman,serif" font-size="14.00">sms : CharField</text>
<text text-anchor="start" x="7.5" y="-51.4" font-family="Times Roman,serif" font-size="14.00">user : CharField</text>
<polyline fill="none" stroke="black" points="-0.5,-43 214.5,-43 "/>
<text text-anchor="middle" x="107" y="-26.4" font-family="Times Roman,serif" font-size="14.00"> </text>
</g>
<!-- 3 -->
<g id="node2" class="node"><title>3</title>
<polygon fill="none" stroke="black" points="231.5,-9.5 231.5,-152.5 446.5,-152.5 446.5,-9.5 231.5,-9.5"/>
<text text-anchor="middle" x="339" y="-135.9" font-family="Times Roman,serif" font-size="14.00">ListaGroup</text>
<polyline fill="none" stroke="black" points="231.5,-127.5 446.5,-127.5 "/>
<text text-anchor="start" x="239.5" y="-110.9" font-family="Times Roman,serif" font-size="14.00">date_create : DateTimeField</text>
<text text-anchor="start" x="239.5" y="-93.9" font-family="Times Roman,serif" font-size="14.00">date_update : DateTimeField</text>
<text text-anchor="start" x="239.5" y="-76.9" font-family="Times Roman,serif" font-size="14.00">id_g : IntegerField</text>
<text text-anchor="start" x="239.5" y="-59.9" font-family="Times Roman,serif" font-size="14.00">id_l : IntegerField</text>
<text text-anchor="start" x="239.5" y="-42.9" font-family="Times Roman,serif" font-size="14.00">user : CharField</text>
<polyline fill="none" stroke="black" points="231.5,-34.5 446.5,-34.5 "/>
<text text-anchor="middle" x="339" y="-17.9" font-family="Times Roman,serif" font-size="14.00"> </text>
</g>
<!-- 4 -->
<g id="node3" class="node"><title>4</title>
<polygon fill="none" stroke="black" points="463.5,-1 463.5,-161 678.5,-161 678.5,-1 463.5,-1"/>
<text text-anchor="middle" x="571" y="-144.4" font-family="Times Roman,serif" font-size="14.00">ListEnvio</text>
<polyline fill="none" stroke="black" points="463.5,-136 678.5,-136 "/>
<text text-anchor="start" x="471.5" y="-119.4" font-family="Times Roman,serif" font-size="14.00">status : CharField</text>
<text text-anchor="start" x="471.5" y="-102.4" font-family="Times Roman,serif" font-size="14.00">id_g : IntegerField</text>
<text text-anchor="start" x="471.5" y="-85.4" font-family="Times Roman,serif" font-size="14.00">date_update : DateTimeField</text>
<text text-anchor="start" x="471.5" y="-68.4" font-family="Times Roman,serif" font-size="14.00">date_create : DateTimeField</text>
<text text-anchor="start" x="471.5" y="-51.4" font-family="Times Roman,serif" font-size="14.00">user : CharField</text>
<text text-anchor="start" x="471.5" y="-34.4" font-family="Times Roman,serif" font-size="14.00">grupo : CharField</text>
<polyline fill="none" stroke="black" points="463.5,-26 678.5,-26 "/>
<text text-anchor="middle" x="571" y="-9.4" font-family="Times Roman,serif" font-size="14.00"> </text>
</g>
</g>
</svg>
